<?xml version="1.0" encoding="utf-8"?>
<!-- Generator: Adobe Illustrator 16.0.0, SVG Export Plug-In . SVG Version: 6.00 Build 0)  -->
<!DOCTYPE svg PUBLIC "-//W3C//DTD SVG 1.1//EN" "http://www.w3.org/Graphics/SVG/1.1/DTD/svg11.dtd">
<svg version="1.1" id="Layer_1" xmlns="http://www.w3.org/2000/svg" xmlns:xlink="http://www.w3.org/1999/xlink" x="0px" y="0px"
	 width="134.432px" height="131.058px" viewBox="0 0 134.432 131.058" enable-background="new 0 0 134.432 131.058"
	 xml:space="preserve">
<g id="f1Zu4L_1_">
	<g>
		<path fill-rule="evenodd" clip-rule="evenodd" fill="#FFFFFF" d="M114.015,81.004c-4.175,2.315-7.914,5.725-13.361,6.095
			c0.712-5.058,1.316-9.351,1.92-13.644c-0.404-0.093-0.81-0.186-1.214-0.278c-0.905,2.689-1.8,5.382-2.718,8.066
			c-2.669,7.805-8.396,12.079-16.217,13.736c-5.308,1.125-8.001-1.438-7.506-6.793c0.502-5.434,2.56-9.517,7.756-12.348
			c7.765-4.23,14.833-9.627,19.701-17.225c1.713-2.673,2.557-5.902,3.199-9.232c-5.21,8.583-11.827,15.35-21.972,19.936
			c1.381-8.834,4.815-17.035,0.765-24.655c-1.266,6.763-2.468,13.954-4.019,21.069c-0.558,2.557-1.808,5.003-2.995,7.373
			c-2.959,5.9-8.057,6.49-12.263,1.335c-4.133-5.066-4.286-11.021-2.968-17.057c0.588-2.692,1.755-5.257,1.859-8.424
			c-2.242,3.346-4.484,6.691-6.612,9.866c-4.052-5.867-4.015-14.504-0.531-31.284c-1.688,3.727-3.802,7.328-4.943,11.215
			c-1.134,3.862-1.289,8.012-1.988,12.819c-8.639-4.047-12.6-10.978-15.802-18.625c0.386,9.434,4.748,16.693,12.31,21.922
			c3.007,2.079,4.64,4.61,6.292,7.814c3.082,5.973,7.425,11.28,10.869,17.087c1.278,2.155,1.505,4.935,2.211,7.43
			c-2.612,0.126-5.757,1.266-7.75,0.217C44.405,80.237,35.226,69.025,29.01,54.83c1.376,4.706,2.752,9.412,4.499,15.386
			c-4.94-0.923-9.398-1.755-13.857-2.588c-0.153,0.388-0.306,0.776-0.459,1.164c4.324,1.667,8.69,3.235,12.957,5.037
			c2.603,1.099,5.438,2.126,7.488,3.952c3.277,2.919,5.986,6.474,9.092,9.935c-8.423,2.877-15.026,1.043-30.945-8.206
			c3.427,5.666,13.039,11.679,21.43,13.236c4.229,0.785,8.577,1.028,12.731,2.073c2.288,0.576,4.811,1.852,6.319,3.598
			c5.789,6.704,4.598,24.815-4.761,29.785c-5.295,2.812-10.563,3.098-15.696,0.515c-7.088-3.567-12.547-8.896-16.821-15.799
			c-3.261-5.267-7.459-10.143-11.991-14.391C0.851,90.891-0.282,81.123,0.05,71.112c0.166-4.979,2.437-9.886,3.742-14.83
			c0.59-2.235,1.525-4.456,1.659-6.722c1.153-19.588,11.163-32.021,29.846-37.774c2.961-0.912,5.899-2.335,8.436-4.11
			c13.445-9.406,27.411-9.896,41.958-2.961c7.288,3.473,14.736,6.645,21.848,10.446c12.597,6.733,19.376,17.42,21.252,31.645
			c0.834,6.322,3.369,12.4,4.678,18.684c3.11,14.933-1.377,27.398-12.477,37.804c-3.09,2.896-5.678,6.476-7.918,10.1
			c-5.594,9.047-13.182,14.903-23.688,17.384c-6.216,1.468-14.823-3.083-16.216-7.888c-2.134-7.364-1.89-14.553,5.372-18.944
			c9.946-6.015,20.201-11.516,30.254-17.359c2.188-1.271,4.079-3.054,6.107-4.602C114.607,81.659,114.311,81.332,114.015,81.004z"/>
	</g>
</g>
</svg>
